<svg id="Layer_1" enable-background="new 0 0 64 64" height="512" viewBox="0 0 64 64" width="512" xmlns="http://www.w3.org/2000/svg"><path d="m51.2 38.7-10.2-3.4v-3.1c1.3-1.6 2.2-3.4 2.7-5.4l3.1-2.3c.8-.6 1.2-1.5 1.2-2.4v-1c0-1.7-1.3-3-3-3h-1v-5.9l1.3-4.7c.5-1.6-.5-3.3-2.1-3.7-.1 0-.2-.1-.4-.1l-10.8-1.7-10.9 1.7c-1.6.3-2.8 1.8-2.5 3.4 0 .1 0 .2.1.4l1.3 4.7v5.8h-1c-1.7 0-3 1.3-3 3v1c0 .9.4 1.8 1.2 2.4l3.1 2.3c.5 2 1.4 3.9 2.7 5.4v3.1l-10.2 3.4c-2.9 1-4.8 3.6-4.8 6.6v16.8h48v-16.7c0-3-1.9-5.7-4.8-6.6zm-26.2-4.6c.1.1.2.2.4.3l.8.6c1.4 1 3.1 1.7 4.9 1.9v4.6l-6-3v-4.4zm8 2.7c1.8-.2 3.4-.8 4.9-1.9l.8-.6c.1-.1.2-.2.4-.3v4.3l-6 3zm9-23.8v2h-20v-2zm-1 4c-4.4 5-12.1 5.4-17 .9-.3-.3-.6-.6-.9-.9zm4 3c.6 0 1 .4 1 1v1c0 .3-.1.6-.4.8l-1.6 1.2v-.1-3.9zm-24.3-13.9c.2-.2.4-.4.7-.4l10.6-1.7 10.6 1.6c.5.1.9.6.8 1.1v.1l-1.2 4.2h-20.4l-1.2-4.1c-.1-.3-.1-.6.1-.8zm-2.3 16.7c-.3-.2-.4-.5-.4-.8v-1c0-.6.4-1 1-1h1v3.9.1zm3.6-4c5.4 5.5 14.3 5.6 19.8.2.1-.1.1-.1.2-.2v5.1c0 3.5-1.7 6.8-4.5 8.9l-.8.6c-2.8 2-6.6 2-9.4 0l-.8-.6c-2.8-2.1-4.5-5.4-4.5-8.9zm-12 26.5c0-2.2 1.4-4.1 3.4-4.7l9.6-3.2v2.2l7 3.5-2 1.3v15.6h-8v-9h-2v9h-8zm44 14.7h-8v-9h-2v9h-14v-14.5l2.5-1.7 8.5-4.2v-2.2l9.6 3.2c2 .7 3.4 2.6 3.4 4.7z"/><path d="m32 52h2v2h-2z"/><path d="m32 56h2v2h-2z"/><path d="m32 48h2v2h-2z"/><path d="m36 47h8v2h-8z"/></svg>